<svg width="51" height="51" viewBox="0 0 51 51" fill="none" xmlns="http://www.w3.org/2000/svg">
<path d="M44.25 25.5C44.25 25.9144 44.0854 26.3118 43.7924 26.6049C43.4993 26.8979 43.1019 27.0625 42.6875 27.0625H12.084L23.4805 38.457C23.6257 38.6022 23.7408 38.7746 23.8194 38.9642C23.8979 39.1539 23.9384 39.3572 23.9384 39.5625C23.9384 39.7678 23.8979 39.9711 23.8194 40.1608C23.7408 40.3505 23.6257 40.5228 23.4805 40.668C23.3353 40.8132 23.163 40.9283 22.9733 41.0069C22.7836 41.0854 22.5803 41.1259 22.375 41.1259C22.1697 41.1259 21.9664 41.0854 21.7767 41.0069C21.5871 40.9283 21.4147 40.8132 21.2695 40.668L7.20704 26.6055C7.06176 26.4604 6.94652 26.288 6.86788 26.0984C6.78925 25.9087 6.74878 25.7054 6.74878 25.5C6.74878 25.2947 6.78925 25.0914 6.86788 24.9017C6.94652 24.712 7.06176 24.5397 7.20704 24.3945L21.2695 10.332C21.5627 10.0389 21.9604 9.87415 22.375 9.87415C22.7896 9.87415 23.1873 10.0389 23.4805 10.332C23.7737 10.6252 23.9384 11.0229 23.9384 11.4375C23.9384 11.8521 23.7737 12.2498 23.4805 12.543L12.084 23.9375H42.6875C43.1019 23.9375 43.4993 24.1021 43.7924 24.3952C44.0854 24.6882 44.25 25.0856 44.25 25.5Z" fill="black"/>
</svg>
