<svg width="44" height="43" viewBox="0 0 44 43" fill="none" xmlns="http://www.w3.org/2000/svg">
<path d="M35.4375 9.40625H30.7814L28.492 5.97297C28.3693 5.78913 28.2032 5.63838 28.0084 5.53408C27.8136 5.42977 27.596 5.37513 27.375 5.375H16.625C16.404 5.37513 16.1864 5.42977 15.9916 5.53408C15.7968 5.63838 15.6307 5.78913 15.508 5.97297L13.2169 9.40625H8.5625C7.49335 9.40625 6.46798 9.83097 5.71198 10.587C4.95597 11.343 4.53125 12.3683 4.53125 13.4375V32.25C4.53125 33.3192 4.95597 34.3445 5.71198 35.1005C6.46798 35.8565 7.49335 36.2812 8.5625 36.2812H35.4375C36.5067 36.2812 37.532 35.8565 38.288 35.1005C39.044 34.3445 39.4688 33.3192 39.4688 32.25V13.4375C39.4688 12.3683 39.044 11.343 38.288 10.587C37.532 9.83097 36.5067 9.40625 35.4375 9.40625ZM28.0469 22.1719C28.0469 23.3678 27.6922 24.5369 27.0278 25.5313C26.3634 26.5257 25.419 27.3008 24.314 27.7585C23.2091 28.2161 21.9933 28.3359 20.8203 28.1026C19.6473 27.8692 18.5699 27.2933 17.7242 26.4477C16.8785 25.602 16.3026 24.5245 16.0693 23.3516C15.836 22.1786 15.9557 20.9628 16.4134 19.8578C16.8711 18.7529 17.6461 17.8085 18.6405 17.1441C19.6349 16.4796 20.804 16.125 22 16.125C23.6037 16.125 25.1418 16.7621 26.2758 17.8961C27.4098 19.0301 28.0469 20.5681 28.0469 22.1719Z" fill="#9C9C9C"/>
</svg>
