<svg width="19" height="20" viewBox="0 0 19 20" fill="none" xmlns="http://www.w3.org/2000/svg">
<path d="M18.3112 5.37821L14.1216 1.18946C13.9823 1.05014 13.8169 0.939617 13.6349 0.864213C13.4529 0.78881 13.2578 0.75 13.0608 0.75C12.8638 0.75 12.6687 0.78881 12.4867 0.864213C12.3047 0.939617 12.1393 1.05014 12 1.18946L0.439687 12.7498C0.299793 12.8886 0.188881 13.0538 0.113399 13.2358C0.0379169 13.4178 -0.000629604 13.613 -4.03797e-08 13.8101V17.9998C-4.03797e-08 18.3976 0.158035 18.7791 0.43934 19.0604C0.720644 19.3417 1.10217 19.4998 1.5 19.4998H17.25C17.4489 19.4998 17.6397 19.4208 17.7803 19.2801C17.921 19.1395 18 18.9487 18 18.7498C18 18.5509 17.921 18.3601 17.7803 18.2194C17.6397 18.0788 17.4489 17.9998 17.25 17.9998H7.81125L18.3112 7.49977C18.4506 7.36048 18.5611 7.19511 18.6365 7.0131C18.7119 6.83109 18.7507 6.636 18.7507 6.43899C18.7507 6.24198 18.7119 6.0469 18.6365 5.86489C18.5611 5.68288 18.4506 5.5175 18.3112 5.37821ZM5.68969 17.9998H1.5V13.8101L9.75 5.56009L13.9397 9.74977L5.68969 17.9998ZM15 8.68946L10.8112 4.49977L13.0612 2.24977L17.25 6.43946L15 8.68946Z" fill="black"/>
</svg>
