<svg width="24" height="25" viewBox="0 0 24 25" fill="none" xmlns="http://www.w3.org/2000/svg">
<path d="M21.3112 7.37821L17.1216 3.18946C16.9823 3.05014 16.8169 2.93962 16.6349 2.86421C16.4529 2.78881 16.2578 2.75 16.0608 2.75C15.8638 2.75 15.6687 2.78881 15.4867 2.86421C15.3047 2.93962 15.1393 3.05014 15 3.18946L3.43969 14.7498C3.29979 14.8886 3.18888 15.0538 3.1134 15.2358C3.03792 15.4178 2.99937 15.613 3 15.8101V19.9998C3 20.3976 3.15804 20.7791 3.43934 21.0604C3.72064 21.3417 4.10217 21.4998 4.5 21.4998H20.25C20.4489 21.4998 20.6397 21.4208 20.7803 21.2801C20.921 21.1395 21 20.9487 21 20.7498C21 20.5509 20.921 20.3601 20.7803 20.2194C20.6397 20.0788 20.4489 19.9998 20.25 19.9998H10.8112L21.3112 9.49977C21.4506 9.36048 21.5611 9.19511 21.6365 9.0131C21.7119 8.83109 21.7507 8.636 21.7507 8.43899C21.7507 8.24198 21.7119 8.0469 21.6365 7.86489C21.5611 7.68288 21.4506 7.5175 21.3112 7.37821ZM8.68969 19.9998H4.5V15.8101L12.75 7.56009L16.9397 11.7498L8.68969 19.9998ZM18 10.6895L13.8112 6.49977L16.0612 4.24977L20.25 8.43946L18 10.6895Z" fill="black"/>
</svg>
