<svg width="24" height="24" viewBox="0 0 24 24" fill="none" xmlns="http://www.w3.org/2000/svg">
<path fill-rule="evenodd" clip-rule="evenodd" d="M10.3095 1.5H13.6545C14.1585 1.4925 14.652 1.6575 15.0495 1.968C15.45 2.283 15.7275 2.7255 15.8295 3.2235L16.122 4.626C16.249 4.694 16.374 4.764 16.497 4.836L17.9145 4.371C18.2062 4.27688 18.5141 4.24416 18.819 4.27488C19.1239 4.3056 19.4191 4.3991 19.686 4.5495C20.016 4.7355 20.2935 5.0025 20.487 5.3295L22.1745 8.1135C22.4473 8.54489 22.5549 9.06038 22.4775 9.56487C22.4 10.0694 22.1427 10.5288 21.753 10.8585H21.75L20.637 11.808V12.195L21.7365 13.1745C22.1187 13.4988 22.3732 13.9482 22.4548 14.4427C22.5364 14.9372 22.4397 15.4446 22.182 15.8745L20.547 18.6645V18.6675C20.3525 18.9931 20.0767 19.2625 19.7467 19.4495C19.4167 19.6364 19.0438 19.7345 18.6645 19.734C18.43 19.7353 18.1967 19.6998 17.973 19.629L17.9655 19.626L16.56 19.1625C16.435 19.2365 16.308 19.307 16.179 19.374L15.888 20.775C15.7853 21.2732 15.5089 21.7188 15.108 22.032C14.7095 22.3438 14.2159 22.509 13.71 22.5H10.338C9.83318 22.5083 9.34074 22.3431 8.94305 22.032C8.54251 21.7191 8.26609 21.2742 8.16305 20.7765L7.87055 19.3725C7.74389 19.3055 7.61886 19.2355 7.49555 19.1625L6.07805 19.6275C5.78644 19.7216 5.4785 19.7543 5.17362 19.7236C4.86874 19.6929 4.57352 19.5994 4.30655 19.449C3.9761 19.2646 3.69988 18.9967 3.50555 18.672L1.81655 15.882C1.55466 15.4593 1.45005 14.9579 1.5211 14.4658C1.59214 13.9737 1.8343 13.5223 2.20505 13.191L3.32555 11.778L2.25605 10.8255C1.87342 10.5009 1.61868 10.0507 1.53734 9.55559C1.45601 9.06043 1.55338 8.55248 1.81205 8.1225L1.81505 8.1195L3.50555 5.3295C3.69729 5.00698 3.9692 4.73955 4.29486 4.5532C4.62051 4.36685 4.98884 4.26791 5.36405 4.266C5.59005 4.254 5.81305 4.2755 6.03305 4.3305L6.06605 4.3395L7.46855 4.833C7.59155 4.761 7.71655 4.692 7.84355 4.626L8.13455 3.225C8.23726 2.72676 8.51372 2.28125 8.91455 1.968C9.31055 1.6575 9.80555 1.4925 10.3095 1.5ZM12 9C11.2044 9 10.4413 9.31607 9.87873 9.87868C9.31612 10.4413 9.00005 11.2044 9.00005 12C9.00005 12.7956 9.31612 13.5587 9.87873 14.1213C10.4413 14.6839 11.2044 15 12 15C12.7957 15 13.5588 14.6839 14.1214 14.1213C14.684 13.5587 15 12.7956 15 12C15 11.2044 14.684 10.4413 14.1214 9.87868C13.5588 9.31607 12.7957 9 12 9ZM7.50005 12C7.50005 10.8065 7.97415 9.66193 8.81807 8.81802C9.66198 7.97411 10.8066 7.5 12 7.5C13.1935 7.5 14.3381 7.97411 15.182 8.81802C16.0259 9.66193 16.5 10.8065 16.5 12C16.5 13.1935 16.0259 14.3381 15.182 15.182C14.3381 16.0259 13.1935 16.5 12 16.5C10.8066 16.5 9.66198 16.0259 8.81807 15.182C7.97415 14.3381 7.50005 13.1935 7.50005 12Z" fill="#692A2A"/>
</svg>
