<svg width="26" height="28" viewBox="0 0 26 28" fill="none" xmlns="http://www.w3.org/2000/svg">
<path d="M24.96 6.26797L13.96 0.247646C13.6661 0.0852062 13.3358 0 13 0C12.6642 0 12.3339 0.0852062 12.04 0.247646L1.04 6.27047C0.725861 6.4424 0.463629 6.69554 0.28069 7.00345C0.0977502 7.31136 0.000812822 7.66275 0 8.02093V19.9791C0.000812822 20.3372 0.0977502 20.6886 0.28069 20.9966C0.463629 21.3045 0.725861 21.5576 1.04 21.7295L12.04 27.7524C12.3339 27.9148 12.6642 28 13 28C13.3358 28 13.6661 27.9148 13.96 27.7524L24.96 21.7295C25.2741 21.5576 25.5364 21.3045 25.7193 20.9966C25.9023 20.6886 25.9992 20.3372 26 19.9791V8.02218C25.9999 7.66337 25.9032 7.31119 25.7203 7.00256C25.5373 6.69393 25.2747 6.44021 24.96 6.26797ZM13 1.9981L23.0438 7.49955L19.3213 9.53633L9.2775 4.03489L13 1.9981ZM13 13.001L2.95625 7.49955L7.195 5.17769L17.2388 10.6791L13 13.001ZM24 19.9841L14 25.4593V14.7302L18 12.5409V17.002C18 17.2673 18.1054 17.5217 18.2929 17.7093C18.4804 17.8969 18.7348 18.0023 19 18.0023C19.2652 18.0023 19.5196 17.8969 19.7071 17.7093C19.8946 17.5217 20 17.2673 20 17.002V11.4456L24 9.25626V19.9791V19.9841Z" fill="#FF6E30"/>
</svg>
