<svg width="35" height="34" viewBox="0 0 35 34" fill="none" xmlns="http://www.w3.org/2000/svg">
<path d="M30.7836 29.7759C30.904 29.9358 30.9774 30.1262 30.9956 30.3256C31.0137 30.5249 30.9759 30.7254 30.8865 30.9045C30.797 31.0836 30.6593 31.2342 30.489 31.3394C30.3186 31.4446 30.1223 31.5002 29.9221 31.5H4.07688C3.87689 31.5 3.68086 31.4443 3.51073 31.3392C3.34061 31.2341 3.20313 31.0836 3.11369 30.9048C3.02425 30.7259 2.98639 30.5257 3.00435 30.3266C3.02231 30.1274 3.09538 29.9372 3.21538 29.7772C4.16894 28.4989 5.44052 27.4925 6.90371 26.8579C6.10167 26.126 5.53969 25.1687 5.29154 24.1117C5.04339 23.0547 5.12067 21.9474 5.51322 20.9351C5.90578 19.9228 6.59526 19.0528 7.49119 18.4394C8.38712 17.8259 9.44761 17.4977 10.5335 17.4977C11.6193 17.4977 12.6798 17.8259 13.5758 18.4394C14.4717 19.0528 15.1612 19.9228 15.5537 20.9351C15.9463 21.9474 16.0236 23.0547 15.7754 24.1117C15.5273 25.1687 14.9653 26.126 14.1633 26.8579C15.2189 27.3141 16.1782 27.9668 16.9901 28.7812C17.802 27.9668 18.7612 27.3141 19.8169 26.8579C19.0149 26.126 18.4529 25.1687 18.2047 24.1117C17.9566 23.0547 18.0339 21.9474 18.4264 20.9351C18.819 19.9228 19.5085 19.0528 20.4044 18.4394C21.3003 17.8259 22.3608 17.4977 23.4467 17.4977C24.5325 17.4977 25.593 17.8259 26.489 18.4394C27.3849 19.0528 28.0744 19.9228 28.4669 20.9351C28.8595 21.9474 28.9368 23.0547 28.6886 24.1117C28.4405 25.1687 27.8785 26.126 27.0764 26.8579C28.5464 27.4891 29.8248 28.4954 30.7836 29.7759ZM3.43075 17.287C3.54389 17.3718 3.67263 17.4336 3.80962 17.4686C3.94662 17.5037 4.08918 17.5115 4.22918 17.4915C4.36918 17.4715 4.50386 17.4241 4.62555 17.3521C4.74724 17.2801 4.85354 17.1848 4.93839 17.0716C5.5904 16.2024 6.43585 15.4969 7.40781 15.011C8.37976 14.5251 9.45151 14.2721 10.5382 14.2721C11.6249 14.2721 12.6966 14.5251 13.6686 15.011C14.6405 15.4969 15.486 16.2024 16.138 17.0716C16.2383 17.2054 16.3684 17.3139 16.5179 17.3887C16.6674 17.4634 16.8323 17.5023 16.9995 17.5023C17.1667 17.5023 17.3316 17.4634 17.4811 17.3887C17.6306 17.3139 17.7607 17.2054 17.861 17.0716C18.513 16.2024 19.3585 15.4969 20.3304 15.011C21.3024 14.5251 22.3741 14.2721 23.4608 14.2721C24.5475 14.2721 25.6192 14.5251 26.5912 15.011C27.5631 15.4969 28.4086 16.2024 29.0606 17.0716C29.1455 17.1848 29.2519 17.28 29.3737 17.352C29.4955 17.4241 29.6302 17.4714 29.7703 17.4913C29.9103 17.5112 30.053 17.5034 30.19 17.4682C30.327 17.4331 30.4558 17.3712 30.5689 17.2863C30.682 17.2014 30.7773 17.095 30.8494 16.9733C30.9214 16.8515 30.9687 16.7168 30.9886 16.5767C31.0086 16.4367 31.0007 16.2941 30.9656 16.1571C30.9304 16.0201 30.8685 15.8913 30.7836 15.7782C29.83 14.5003 28.5584 13.4943 27.0953 12.8602C27.8973 12.1283 28.4593 11.171 28.7074 10.114C28.9556 9.05704 28.8783 7.94973 28.4858 6.93744C28.0932 5.92514 27.4037 5.05517 26.5078 4.44172C25.6119 3.82827 24.5514 3.5 23.4655 3.5C22.3796 3.5 21.3191 3.82827 20.4232 4.44172C19.5273 5.05517 18.8378 5.92514 18.4453 6.93744C18.0527 7.94973 17.9754 9.05704 18.2236 10.114C18.4717 11.171 19.0337 12.1283 19.8357 12.8602C18.7801 13.3165 17.8208 13.9692 17.0089 14.7836C16.197 13.9692 15.2377 13.3165 14.1821 12.8602C14.9841 12.1283 15.5461 11.171 15.7943 10.114C16.0424 9.05704 15.9651 7.94973 15.5726 6.93744C15.18 5.92514 14.4905 5.05517 13.5946 4.44172C12.6987 3.82827 11.6382 3.5 10.5523 3.5C9.46646 3.5 8.40596 3.82827 7.51004 4.44172C6.61411 5.05517 5.92462 5.92514 5.53207 6.93744C5.13951 7.94973 5.06224 9.05704 5.31039 10.114C5.55854 11.171 6.12051 12.1283 6.92255 12.8602C5.4525 13.492 4.17414 14.4987 3.21538 15.7795C3.13053 15.8927 3.06879 16.0214 3.03369 16.1584C2.99859 16.2953 2.99082 16.4379 3.01082 16.5779C3.03082 16.7178 3.0782 16.8525 3.15025 16.9742C3.22231 17.0959 3.31762 17.2021 3.43075 17.287Z" fill="#FF6E30"/>
</svg>
