<svg width="28" height="25" viewBox="0 0 28 25" fill="none" xmlns="http://www.w3.org/2000/svg">
<path d="M27.0447 22.1006H26.1121V3.19072L27.2393 2.8788C27.3617 2.84928 27.4782 2.78855 27.582 2.7002C27.6858 2.61184 27.7748 2.49764 27.8438 2.36434C27.9128 2.23103 27.9603 2.08131 27.9836 1.924C28.0068 1.7667 28.0054 1.60499 27.9793 1.44841C27.9532 1.29183 27.9031 1.14356 27.8318 1.01232C27.7604 0.881075 27.6694 0.76953 27.5641 0.684256C27.4587 0.598983 27.3411 0.541706 27.2183 0.515802C27.0955 0.489897 26.9698 0.49589 26.8488 0.533428L0.736734 7.7315C0.511778 7.79394 0.312716 7.96118 0.177835 8.20105C0.0429549 8.44092 -0.0182174 8.73648 0.00608486 9.03087C0.0303871 9.32526 0.138448 9.5977 0.309481 9.79578C0.480515 9.99385 0.702441 10.1036 0.932574 10.1039C0.998794 10.1037 1.06482 10.0947 1.12958 10.0769L1.86515 9.87442V22.1006H0.932574C0.68524 22.1006 0.448036 22.227 0.273145 22.452C0.0982531 22.677 0 22.9821 0 23.3003C0 23.6185 0.0982531 23.9236 0.273145 24.1486C0.448036 24.3736 0.68524 24.5 0.932574 24.5H27.0447C27.292 24.5 27.5292 24.3736 27.7041 24.1486C27.879 23.9236 27.9772 23.6185 27.9772 23.3003C27.9772 22.9821 27.879 22.677 27.7041 22.452C27.5292 22.227 27.292 22.1006 27.0447 22.1006ZM20.5166 22.1006H7.4606V19.7013H20.5166V22.1006ZM20.5166 17.3019H7.4606V14.9026H20.5166V17.3019Z" fill="#FF6E30"/>
</svg>
