<svg width="24" height="24" viewBox="0 0 24 24" fill="none" xmlns="http://www.w3.org/2000/svg">
<path d="M21.2588 6.46813C21.2133 6.35569 21.1412 6.25595 21.0487 6.17749C20.9562 6.09902 20.8461 6.04416 20.7277 6.01761C20.6093 5.99106 20.4863 5.99362 20.3692 6.02506C20.252 6.0565 20.1442 6.11589 20.0551 6.19813L16.2769 9.68469L14.6616 9.33782L14.3147 7.72251L17.8013 3.94438C17.8836 3.85522 17.9429 3.74744 17.9744 3.63028C18.0058 3.51313 18.0084 3.39009 17.9818 3.27174C17.9553 3.15338 17.9004 3.04322 17.822 2.95072C17.7435 2.85822 17.6438 2.78613 17.5313 2.74063C16.5066 2.3261 15.3957 2.16958 14.2963 2.28484C13.1969 2.40009 12.1426 2.78358 11.2261 3.40162C10.3096 4.01965 9.55895 4.85332 9.04003 5.82937C8.52111 6.80541 8.24984 7.89397 8.25006 8.99938C8.24885 9.93283 8.44034 10.8565 8.81256 11.7125L3.16787 16.5931C3.15381 16.6044 3.14068 16.6175 3.12756 16.6297C2.56489 17.1924 2.24878 17.9555 2.24878 18.7513C2.24878 19.1453 2.32639 19.5354 2.47717 19.8994C2.62795 20.2635 2.84895 20.5942 3.12756 20.8728C3.40617 21.1514 3.73692 21.3724 4.10094 21.5232C4.46496 21.674 4.85511 21.7516 5.24912 21.7516C6.04486 21.7516 6.80801 21.4355 7.37068 20.8728C7.38287 20.8606 7.396 20.8466 7.40725 20.8334L12.2869 15.1869C13.3148 15.6381 14.439 15.8258 15.5578 15.7331C16.6765 15.6403 17.7545 15.27 18.694 14.6557C19.6336 14.0413 20.4051 13.2024 20.9387 12.2147C21.4723 11.2271 21.7512 10.122 21.7501 8.99938C21.7515 8.1318 21.5847 7.27218 21.2588 6.46813ZM15.0001 14.2494C14.1123 14.2482 13.2393 14.0224 12.4622 13.5931C12.3117 13.51 12.1372 13.4811 11.9678 13.5113C11.7985 13.5415 11.6447 13.629 11.5322 13.7591L6.29162 19.8284C6.00803 20.0979 5.6304 20.2459 5.23926 20.2409C4.84812 20.2358 4.47441 20.0782 4.1978 19.8016C3.9212 19.525 3.7636 19.1513 3.75859 18.7602C3.75358 18.369 3.90157 17.9914 4.171 17.7078L10.2357 12.4681C10.366 12.3556 10.4536 12.2016 10.4839 12.0321C10.5141 11.8626 10.485 11.6878 10.4016 11.5372C9.92352 10.6725 9.69915 9.6904 9.75431 8.70386C9.80946 7.71732 10.1419 6.76637 10.7134 5.96034C11.2849 5.1543 12.0723 4.52591 12.985 4.1474C13.8977 3.76888 14.8987 3.65562 15.8729 3.82063L12.9479 6.99032C12.8665 7.07861 12.8075 7.18514 12.7758 7.30097C12.7442 7.4168 12.7408 7.53854 12.766 7.65594L13.2966 10.1244C13.327 10.2656 13.3974 10.395 13.4995 10.4971C13.6017 10.5992 13.7311 10.6697 13.8722 10.7L16.3426 11.2306C16.46 11.2558 16.5817 11.2524 16.6975 11.2208C16.8134 11.1891 16.9199 11.1301 17.0082 11.0488L20.1779 8.12376C20.3042 8.87658 20.2651 9.64789 20.0632 10.384C19.8612 11.1202 19.5014 11.8035 19.0086 12.3865C18.5158 12.9695 17.9019 13.4382 17.2097 13.7599C16.5174 14.0816 15.7634 14.2486 15.0001 14.2494Z" fill="#646464"/>
</svg>
